<?xml version="1.0" encoding="UTF-8"?>
<svg width="124px" height="82px" viewBox="0 0 124 82" version="1.1" xmlns="http://www.w3.org/2000/svg" xmlns:xlink="http://www.w3.org/1999/xlink">
    <!-- Generator: Sketch 54.1 (76490) - https://sketchapp.com -->
    <title>mdpi/K2 Sports</title>
    <desc>Created with Sketch.</desc>
    <defs>
        <polygon id="path-1" points="0 0 124 0 124 82 0 82"></polygon>
    </defs>
    <g id="Site" stroke="none" stroke-width="1" fill="none" fill-rule="evenodd">
        <g id="Desktop:-Who-We-Are-" transform="translate(-887.000000, -1139.000000)">
            <g id="K2-Sports" transform="translate(887.000000, 1139.000000)">
                <mask id="mask-2" fill="white">
                    <use xlink:href="#path-1"></use>
                </mask>
                <g id="Clip-2"></g>
                <path d="M110.448406,75.1825021 L111.583626,75.1825021 C112.163584,75.1825021 112.782385,75.3096394 112.782385,75.9911169 C112.782385,76.8363756 112.150909,76.8879383 111.444633,76.8879383 L110.448406,76.8879383 L110.448406,75.1825021 Z M110.448406,77.5948433 L111.407261,77.5948433 L112.858599,79.9810493 L113.791342,79.9810493 L112.227124,77.5560215 C113.035019,77.4549651 113.65235,77.0263464 113.65235,76.0405017 C113.65235,74.9550707 113.008852,74.4748893 111.70929,74.4748893 L109.615867,74.4748893 L109.615867,79.9810493 L110.448406,79.9810493 L110.448406,77.5948433 Z M111.450291,73.2638455 L111.457363,73.2496889 C113.615685,73.2496889 115.318841,74.9544173 115.318841,77.2149016 C115.318841,79.5127921 113.615685,81.204834 111.457363,81.204834 C109.275758,81.204834 107.572602,79.5127921 107.572602,77.2149016 C107.572602,74.9551251 109.267326,73.2638455 111.450291,73.2638455 L111.450291,73.2638455 Z M111.457363,72.4559385 C108.833431,72.4559385 106.613747,74.4748893 106.613747,77.2156095 C106.613747,79.9810493 108.833431,82 111.457363,82 C114.056597,82 116.276336,79.9810493 116.276336,77.2156095 C116.276336,74.4749437 114.05589,72.4559385 111.457363,72.4559385 L111.457363,72.4559385 Z M107.545075,52.9179076 L82.9112674,52.9179076 L116.390577,35.3360482 C122.247448,31.9329619 124,26.0638482 124,18.6411551 C124,7.68186798 115.177782,0.000707830625 104.540779,0.000707830625 C101.459669,0.000707830625 97.3448498,0.746434619 94.7624798,2.07263697 L54.2735076,23.2518549 L70.6945411,0 L48.866089,0 L0,70.3578741 L21.8292137,70.3578741 L41.6560162,41.8936634 L42.0567814,70.3578741 L60.0808753,70.3578741 L59.6801646,39.4884005 L102.009273,17.181445 C103.489824,16.4690952 105.266965,17.0929117 105.978735,18.5747824 C106.690451,20.056653 106.067189,21.8354314 104.586638,22.5477812 L74.4996609,38.2857418 C71.295716,40.0900565 66.0894144,42.2941322 66.0894144,47.5064336 L66.4887651,70.3578741 L95.328349,70.3578741 L107.545075,52.9179076 Z" id="Fill-1" fill="#000000" mask="url(#mask-2)"></path>
            </g>
        </g>
        <g id="Raw-Engineering-BLACK"></g>
    </g>
</svg>