<?xml version="1.0" encoding="UTF-8"?>
<svg width="75px" height="104px" viewBox="0 0 75 104" version="1.1" xmlns="http://www.w3.org/2000/svg" xmlns:xlink="http://www.w3.org/1999/xlink">
    <!-- Generator: Sketch 54.1 (76490) - https://sketchapp.com -->
    <title>mdpi/Miami Heat</title>
    <desc>Created with Sketch.</desc>
    <defs>
        <polygon id="path-1" points="0.000125660232 6.0779838e-05 73 6.0779838e-05 73 77.0000487 0.000125660232 77.0000487"></polygon>
        <polygon id="path-3" points="0.000143478261 9.09090909e-05 11.0001435 9.09090909e-05 11.0001435 10 0.000143478261 10"></polygon>
        <polygon id="path-5" points="-9.67741935e-05 4.6875e-05 15.0001239 4.6875e-05 15.0001239 15 -9.67741935e-05 15"></polygon>
        <polygon id="path-7" points="0 -4.54545455e-05 15.9999059 -4.54545455e-05 15.9999059 9.99995455 0 9.99995455"></polygon>
    </defs>
    <g id="Site" stroke="none" stroke-width="1" fill="none" fill-rule="evenodd">
        <g id="Desktop:-Who-We-Are-" transform="translate(-461.000000, -1128.000000)">
            <g id="Miami-Heat" transform="translate(461.000000, 1128.000000)">
                <g id="Group-3" transform="translate(2.000000, 0.000000)">
                    <mask id="mask-2" fill="white">
                        <use xlink:href="#path-1"></use>
                    </mask>
                    <g id="Clip-2"></g>
                    <path d="M7.71286093,29.5246753 C7.94491391,26.9568715 17.1201921,23.5825171 31.9744834,23.0508272 C30.5966689,24.0908146 28.9650464,25.9017766 28.5657219,28.8199791 L28.4119868,29.929169 C28.3148146,30.6153462 28.1925033,31.3059095 27.9362781,31.9993968 C27.3624305,33.4979728 25.7578808,34.7538525 24.0218344,35.6900361 C18.0363179,34.937093 13.0394437,33.6631816 10.125245,32.0802956 L10.1204106,32.0802956 C8.52843046,31.2084411 7.64517881,30.2839538 7.71286093,29.5246753 M64.7630861,28.7649095 C65.3359669,29.3960171 65.2997086,29.7907639 65.288106,29.929169 C65.2257417,30.6475108 64.3275033,31.5252133 62.8090066,32.3249411 C59.6332649,33.9897006 54.1689007,35.2777449 47.6660993,35.9595361 C47.9513311,35.7543652 48.2646026,35.590131 48.604947,35.4614728 L48.7132384,35.4112766 C50.5807815,34.6519981 52.6953642,33.7874538 52.7954371,30.6782133 C52.8152583,30.1864854 52.8326623,28.6679285 53.1053245,28.1221057 C53.4567881,27.4383652 54.3395563,26.3628019 55.1333709,26.0660108 C55.1435232,26.0660108 53.8237219,25.8067449 53.8237219,25.8067449 C53.7550728,25.8067449 53.6782053,25.8067449 53.6226093,25.7862766 C54.0581921,25.4763272 54.376298,25.0771943 54.6059338,24.6848842 C59.8923907,25.7799411 63.4408675,27.2897259 64.7630861,28.7649095 M71.2518675,24.8554538 C68.4623974,21.7705804 62.3071921,19.266131 54.3840331,17.7319791 C54.4125563,16.8157766 54.9660993,16.4434475 55.9639272,15.7572703 C56.471543,15.3888399 57.0545762,14.9809348 57.6376093,14.4248778 C60.1969603,11.9769601 57.1962252,8.23709937 57.0743974,8.07383987 L55.4137682,6.05770696 L55.8082583,8.64841582 C56.0852715,10.4262386 55.4393907,11.0573462 53.5152848,12.394612 C53.2759801,12.5763905 53.057947,12.7518335 52.8790728,12.9550551 C52.9564238,11.7742259 53.0134702,10.4471943 52.6213974,8.79461835 C52.212404,7.1361943 51.4084371,6.47048544 51.4084371,6.47048544 L51.2000728,8.86918165 C51.2000728,8.88672595 51.0086291,10.7425234 48.5420993,12.9989158 C48.7615828,12.7518335 48.9554437,12.5067006 49.1323841,12.2454854 C50.3448609,10.4744854 49.991947,8.45542848 49.5839205,6.11423861 L49.5041523,5.62738418 C49.0850066,3.20090949 49.7376556,1.67552975 50.1514834,1.42503608 C50.5522583,0.920637342 51.3596093,0.0984917722 51.3596093,0.0984917722 C51.3596093,0.0984917722 50.9346623,-0.0988816456 49.7376556,0.0653525316 C48.1945033,0.281244937 45.598894,1.22132722 45.6699603,3.33297911 C45.6955828,4.28037152 45.9977351,5.15904873 46.2597616,5.95292848 C46.5454768,6.78823228 46.8181391,7.58698544 46.5788344,7.98806772 C46.3951258,8.30776392 45.8140265,8.56946646 44.9196556,8.72639051 C41.2638543,9.39940949 38.488404,11.1060804 37.0549934,13.5593589 C36.5749338,14.3717576 36.281,15.2294791 36.1103444,16.1369095 C27.0728477,16.1656627 18.5163775,17.3036057 11.8782119,19.363112 C4.43849669,21.6784728 0.337927152,24.8340108 0.0188543046,28.4715297 C-0.146483444,30.4014032 0.711145695,33.1543968 5.48708609,35.8128462 L5.44986093,35.8562196 L6.80737086,36.4946373 L6.81172185,36.4946373 L7.52383444,36.8416247 L7.53350331,36.8352892 C9.73800662,37.8338525 12.3176623,38.6793905 15.1960861,39.3792133 C14.1629669,39.9727956 13.2279868,40.6487386 12.3780927,41.3914475 C7.75395364,45.2073335 5.08631126,50.8795044 5.08631126,56.9103589 C5.08631126,62.2759918 7.16898675,67.311207 10.9388808,71.1114981 C14.7165099,74.9020424 19.7365894,77.0000487 25.0704238,77.0000487 C34.5164305,77.0000487 42.751894,70.2669348 44.6469934,60.9830741 C46.2597616,56.1354854 46.0789536,50.9209285 46.003053,48.9540171 C45.8449669,44.4860677 48.0267483,42.0264538 49.4089139,40.9099538 C55.7236556,40.1136373 61.3098477,38.7227639 65.4761656,36.8630677 L66.1452517,36.5462956 L66.1568543,36.5462956 L67.598,35.8562196 L67.5607748,35.8128462 C70.8999205,33.9356057 72.7674636,31.72015 72.9801788,29.3794475 C73.1179603,27.7955867 72.540245,26.2833652 71.2518675,24.8554538" id="Fill-1" fill="#0F0F0E" mask="url(#mask-2)"></path>
                </g>
                <path d="M56.0681438,17 C56.1972301,15.4213333 57.7535384,15.1164444 59.2698481,13.7417778 C61.2052338,11.964 58.6807782,9 58.6807782,9 C58.996676,10.9942222 58.0412555,11.7497778 56.2885905,12.9231111 C55.7363374,13.3017778 55.3313519,13.8115556 55.2749902,14.4875556 C55.2099925,15.2226667 55.1713575,16.0137778 55,16.8235556 C55.3581691,16.8822222 55.7177017,16.9435556 56.0681438,17" id="Fill-4" fill="#ED982A"></path>
                <path d="M50.1026872,14.384 C49.6430128,14.7585882 49.2147218,15.1355294 48.8224295,15.5167059 C48.5275179,15.8169412 48.2566054,16.1021176 48,16.3877647 C49.6702425,16.5487059 51.2897178,16.7557647 52.8570413,17 C53.8590022,15.0188235 54.3283685,12.7929412 53.7454682,9 C53.7454682,9 53.5968586,11.5783529 50.1026872,14.384" id="Fill-6" fill="#ED982A"></path>
                <path d="M39.6919145,15.7496875 C41.8172525,15.7773438 43.8857735,15.851875 45.9167377,16 C45.9870366,15.919375 46.0467425,15.851875 46.1218564,15.7970313 C47.4729434,14.3832813 49.5790214,13.1978125 50.7038038,11.6148438 C51.8266602,10.0478125 51.3735694,8.11609375 50.9589985,5.779375 C50.2357865,1.7425 52,1 52,1 C52,1 48.471573,1.47109375 48.5356124,3.43140625 C48.6304678,6.07796875 51.4587948,8.5684375 47.2018593,9.304375 C42.5346865,10.1251563 39.6273936,12.5659375 39,15.7496875 L39.6919145,15.7496875" id="Fill-8" fill="#ED982A"></path>
                <polygon id="Fill-10" fill="#0F0F0E" points="20.7403077 90 23 80 19.2735385 80 17 90"></polygon>
                <path d="M29.2536201,82.4709091 L29.4786596,86.5372727 L27.4913457,86.5372727 L29.5020343,90 L33,90 L32.456422,80 L26.6970619,80 C26.6970619,80 21.9739832,90 22,90 L25.6919467,90 L29.2288704,82.4709091 L29.2536201,82.4709091" id="Fill-12" fill="#0F0F0E"></path>
                <polygon id="Fill-14" fill="#0F0F0E" points="18.5288571 100.579091 17.6996429 104 21.5221071 104 24 94 20.1807857 94 19.2373571 97.8677273 16.3634286 97.8677273 17.3040714 94 13.4816071 94 11 104 14.8238571 104 15.654 100.579091"></polygon>
                <g id="Group-18" transform="translate(24.000000, 94.000000)">
                    <mask id="mask-4" fill="white">
                        <use xlink:href="#path-3"></use>
                    </mask>
                    <g id="Clip-17"></g>
                    <polygon id="Fill-16" fill="#0F0F0E" mask="url(#mask-4)" points="4.4144913 7.746 4.68757826 6.37554545 9.37692609 6.37554545 9.97092609 4.16963636 5.26675217 4.16963636 5.57475217 2.69281818 10.2722304 2.69281818 11.0001435 9.09090909e-05 2.45123043 9.09090909e-05 0.000143478261 10.0000909 8.47588261 10.0000909 9.08757826 7.746"></polygon>
                </g>
                <polygon id="Fill-19" fill="#0F0F0E" points="53.7403077 90 56 80 52.2647692 80 50 90"></polygon>
                <g id="Group-23" transform="translate(47.000000, 89.000000)">
                    <mask id="mask-6" fill="white">
                        <use xlink:href="#path-5"></use>
                    </mask>
                    <g id="Clip-22"></g>
                    <path d="M14.4971613,4.6875e-05 C15.0671613,0.747703125 15.6932903,2.22379688 13.0615161,3.36145313 C9.99522581,4.69645313 13.0716774,8.07285938 8.87506452,8.07285938 L7.15587097,8.07285938 L5.427,15.0000469 L1.13941935,15.0000469 L2.89151613,8.07285938 L-9.67741935e-05,8.07285938 L0.904258065,4.92660938 L8.31619355,4.92660938 C12.6947419,4.92660938 9.62119355,2.00817188 11.8624839,1.61723438 C13.3890968,1.34254688 14.3253871,1.07489063 14.4971613,4.6875e-05" id="Fill-21" fill="#0F0F0E" mask="url(#mask-6)"></path>
                </g>
                <g id="Group-26" transform="translate(0.000000, 80.000000)">
                    <mask id="mask-8" fill="white">
                        <use xlink:href="#path-7"></use>
                    </mask>
                    <g id="Clip-25"></g>
                    <polygon id="Fill-24" fill="#0F0F0E" mask="url(#mask-8)" points="8.21731765 5.15677273 7.57167059 -4.54545455e-05 2.49731765 -4.54545455e-05 -9.41176471e-05 9.99995455 3.74108235 9.99995455 5.12649412 4.78040909 5.14767059 4.78040909 5.89167059 9.99995455 8.09967059 9.99995455 11.1547294 4.78040909 11.1759059 4.78040909 9.97214118 9.99995455 13.5076706 9.99995455 15.9999059 -4.54545455e-05 11.1217882 -4.54545455e-05 8.24131765 5.15677273"></polygon>
                </g>
                <polygon id="Fill-27" fill="#0F0F0E" points="42.2145882 85.1568182 41.5632941 80 36.4988235 80 34 90 37.744 90 39.1167059 84.7804545 39.1505882 84.7804545 39.8988235 90 42.0908235 90 45.1454118 84.7804545 45.1708235 84.7804545 43.9797647 90 47.5054118 90 50 80 45.1232941 80 42.2465882 85.1568182"></polygon>
                <path d="M42.261874,96.4472727 L42.4841633,100.54 L40.4913516,100.54 L42.5098296,104 L46,104 L45.4610059,94 L39.6934019,94 C39.6934019,94 34.97262,104 35.0001197,104 L38.6919545,104 L42.2329993,96.4472727 L42.261874,96.4472727" id="Fill-29" fill="#0F0F0E"></path>
                <path d="M8.05929412,58.2921622 C8.57882353,60.998 10.0781176,64.2418919 13.0658824,66.4062703 C13.9675294,67.0737297 14.9567059,67.5830811 16,68 C15.3505882,66.8664865 14.6014118,65.7315135 13.8367059,64.5547027 C12.4051765,62.3985946 10.9350588,60.1592973 9.992,57.7283243 C9.03294118,55.2311892 8.75905882,52.6241081 9.17976471,50 C8.41929412,52.1371351 8,54.4411351 8,56.8497297 C8,57.3371892 8.02964706,57.8081081 8.05929412,58.2921622" id="Fill-31" fill="#80142D"></path>
                <path d="M39.6416555,24 C39.7146951,24.2264362 39.7691071,24.4543085 39.8073426,24.6692553 C39.9798924,25.9732979 39.5901847,27.0279255 37.9784124,27.2869149 C36.3166398,27.546383 35.7514411,26.120266 35.6215385,24.9584043 C35.6092835,24.5476596 35.6357542,24.2264362 35.6730093,24 C35.3921256,24 35.1230067,24 34.8484956,24.0071809 C34.3053558,24.3054255 33.6171173,24.7807979 32.9524082,25.4581915 C32.6239753,26.1465957 32.2259342,27.1231915 32.8367214,29.4114894 C33.9225109,33.4514362 33.4612342,35.8704255 30.1930815,37.2601596 C26.0342383,39.0491489 23.3705002,40.082234 19.7954833,44.5314894 C18.1033185,46.6455319 17.1709611,50.1579255 17.0194898,53.6880319 C16.8709597,57.1118617 17.5817474,60.7750532 18.7974394,63.7670745 C19.6146001,65.7777128 20.5636242,67.5303191 21.6847079,69 C22.8023603,68.9650532 23.933248,68.8314894 25.0597239,68.5792021 C23.8141298,67.1392021 23.1048127,65.3880319 22.9729493,63.42 C22.5499081,56.8902128 26.1018857,54.1365957 31.5666174,49.7940957 L34.0156485,47.751383 C43.7779496,39.5508511 40.9274459,31.1985638 42,24.0698936 C41.2303885,24.0426064 40.4450907,24.0071809 39.6416555,24" id="Fill-33" fill="#80142D"></path>
                <path d="M43.4410252,24 C43.1349058,25.3998696 42.993846,26.8925217 42.8988265,28.431087 C42.5138508,34.6379565 42.7004612,41.6650435 34.6659293,48.6428696 L32.2488106,50.5587826 C26.8709052,54.7837391 23.800895,57.4141739 24.0100358,63.1461304 C24.0786065,65.0424348 24.8960678,66.692913 26.257197,68 C27.7544882,67.5432609 29.2434529,66.9483043 30.663357,66.1515217 C37.6619809,62.2694783 42.0451208,56.4624348 43.7339202,49.0273913 C44.7903994,44.3270435 44.7688486,40.4923478 44.7541549,37.4319565 C44.7414203,35.8661304 44.9495815,32.8320435 44.9495815,32.8320435 C45.1743956,30.9036957 45.4917802,28.2048696 47.7663697,24.6595217 C47.8398383,24.5447391 47.9182049,24.4352174 48,24.3194783 C46.5428717,24.1793478 45.0240298,24.056913 43.4410252,24" id="Fill-35" fill="#80142D"></path>
                <path d="M47.7845,43.9781003 L47.7845,43.9432253 L47.7845,43.986819 C47.5575,45.1066913 47.502,46.3752664 47.352,47.6273727 C47.2795,48.1180434 47.2175,48.5723861 47.1495,49.0223694 C47.112,49.1594472 47.0845,49.2863531 47.0615,49.4210091 C45.247,57.3250213 40.5335,63.480444 32.9545,67.6140904 C31.6455,68.3077137 30.331,68.8865404 29,69.3466956 C31.2225,70.7567078 33.8145,71.1882849 35.592,70.9286605 C42.397,69.9487723 45.711,65.7172824 47.3135,61.1501215 C48.9555,56.4972264 48.77,51.5091447 48.6955,49.4529777 C48.4375,42.5666349 54,40.0193129 54,40.0193129 C49.677,39.7916572 48.255,41.6046685 47.7845,43.9781003" id="Fill-37" fill="#80142D"></path>
                <path d="M41.9183077,69.081 C39.3655385,71.334 36.6138462,71.84 35.3704615,72.0315 C32.9173846,72.431 30.0050769,71.8125 27.4301538,69.663 C27.3872308,69.64 27.3516923,69.596 27.3073846,69.568 C26.2029231,69.8715 25.0966154,70.0765 24,70.1715 C26.5213846,73.0435 29.832,74.663 34.2756923,74.9795 C34.2978462,75 34.3149231,75 34.3375385,75 L34.3444615,75 C37.3647692,73.7425 40.0038462,71.6505 42,69 C41.9732308,69.0325 41.9538462,69.0525 41.9183077,69.081" id="Fill-39" fill="#80142D"></path>
                <path d="M16.9967086,74 C17.0409439,72.6230588 16.6362379,71.2616471 15.9675318,69.8974118 C14.3670606,69.4564706 12.8103542,68.8145882 11.3077655,67.9317647 C10.4560005,67.4517647 9.69270612,66.6978824 9.01176471,66.0070588 C9.01176471,66 9.01176471,66 9,66 C10.7383535,69.3717647 13.5430604,72.1811765 16.9967086,74" id="Fill-41" fill="#80142D"></path>
                <path d="M30.9773846,75.5781538 C28.5123077,75.0146154 26.4035385,74.1376923 24.5569231,72.7364615 C23.6107692,72.0169231 22.7458462,71.2101538 21.9676923,70.2944615 C20.9707692,70.2815385 19.9793846,70.186 19,70 C19.5446154,71.4136923 19.8136923,72.8412308 19.6383077,74.3426154 C21.9409231,75.4018462 24.5075385,76 27.2033846,76 C28.5063077,76 29.7741538,75.8601538 31,75.5892308 C30.994,75.5892308 30.9838462,75.5892308 30.9773846,75.5781538" id="Fill-43" fill="#80142D"></path>
                <path d="M51.96,28.48125 C51.5631111,29.9545313 50.2617778,29.7745312 49.8786667,28.9790625 C49.2791111,27.7326562 49.5106667,26.75625 50.1297778,26.0995313 C50.7595556,25.4367187 51.7817778,25.0710937 52.7768889,24.5821875 C52.7768889,24.579375 52.7768889,24.579375 52.788,24.579375 C51.6377778,24.3595312 50.4168889,24.1603125 49.1173333,24 C49.1075556,24.0201563 49.0848889,24.0403125 49.0728889,24.0614063 C48.96,24.2071875 48.8404444,24.3445313 48.7328889,24.5020312 C46.6835556,27.93 46.4244444,30.45375 46.2244444,32.4210937 L46.1555556,33.0290625 C46.0373333,34.0415625 46.0528889,35.326875 46.0577778,36.8278125 L46.0577778,37.4657813 C46.0488889,37.9757812 46.0248889,38.5026563 46,39 L46.0328889,39 C46.0528889,38.7998438 46.0577778,38.7210938 46.0577778,38.8223438 C46.6395556,36.7673437 47.7084444,35.5204687 49.2057778,34.8478125 C50.8382222,34.1142187 52.4462222,33.444375 52.5217778,30.8132812 C52.5542222,29.7342188 52.628,28.6359375 52.8582222,28.0640625 C53.2617778,27.0496875 54,26.7923437 54,26.7923437 C53.2106667,26.7 52.3448889,27.0707813 51.96,28.48125" id="Fill-45" fill="#80142D"></path>
                <path d="M10.9193973,57.5871034 C11.8143977,59.7855862 13.2703983,61.8942759 14.6818989,63.9344138 C15.7633993,65.5125517 16.8303998,67.0506207 17.6424001,68.6022069 C18.5339005,68.8136552 19.4559009,68.9483448 20.3889012,69 C19.4299008,67.6381379 18.5814005,66.086069 17.8489002,64.3206207 C15.041899,57.4490345 15.4478992,48.9587586 18.9379006,44.053931 C20.7354014,41.5088276 22.8964023,39.7887586 25.6729034,38.3042759 C28.0594044,37.0124138 29.5569051,36.6498621 31.0684057,35.7596552 C32.7214064,34.7748276 33.6109067,33.1730345 32.5199063,29.5397931 C32.2009062,28.4791724 32.1434061,27.644 32.2129062,27 C31.835406,27.7115862 31.5379059,28.5424138 31.4029058,29.5117931 L31.4099058,29.5026207 C31.2339058,30.5294483 31.1694057,31.663931 30.7169055,32.8090345 C29.2604049,36.5610345 22.191902,38.6542759 21.2594016,38.9246207 C18.5709005,39.7235862 16.4213996,40.931931 14.7438989,42.3985517 C9.90689688,46.6275172 9.04239652,52.9724138 10.9193973,57.5871034" id="Fill-47" fill="#80142D"></path>
                <path d="M39.5289239,17.0063036 C19.925666,16.795592 3.58548417,21.8937374 3.01554003,28.3539304 C2.78649252,30.9396699 5.10079641,33.3391422 9.2051723,35.3201246 C11.7349073,36.5423498 14.9585931,37.6056856 18.6855998,38.4411987 C19.4257491,38.0940868 20.2048024,37.8090639 21.0242187,37.5499521 C21.6773202,37.3514628 22.8765372,36.954973 24.1934388,36.3800383 C18.7040792,35.5826586 14.2622108,34.3345223 11.5257981,32.8570966 C9.5159183,31.7551385 8.43146827,30.5216689 8.53748177,29.2192658 C8.92360434,24.8837889 22.643113,21.4874698 39.186082,21.646359 C55.7314826,21.8150261 68.8319308,25.4699681 68.4472671,29.8157117 C68.345144,31.0046922 67.2485365,32.1125171 65.3811427,33.0912749 C61.924519,34.9285237 55.8233934,36.3267492 48.4175237,36.9867508 C48.1529763,37.3377739 47.924415,37.7323081 47.7483743,38.1635091 C51.1145461,36.8889728 54.9961963,38.7902662 54.9961963,38.7902662 C54.9961963,38.7902662 55.257826,38.8929331 55.4440791,39 C60.361063,38.1346646 64.5816647,36.874795 67.7557479,35.3641248 C71.4968573,33.5640316 73.7727435,31.4080265 73.9852568,29.0598876 C74.5445023,22.5923613 59.124401,17.1891485 39.5289239,17.0063036" id="Fill-49" fill="#FFFFFF"></path>
                <path d="M39.5288946,17.0063036 C19.9256201,16.795592 3.58542444,21.8937374 3.01547982,28.3539304 C2.78691841,30.9396699 5.10073796,33.3391422 9.20511734,35.3201246 C11.7348545,36.5423498 14.958543,37.6056856 18.6855529,38.4411987 C19.4257028,38.0940868 20.2047568,37.8090639 21.0241738,37.5499521 C21.6772759,37.3514628 22.8764938,36.954973 24.1933966,36.3800383 C18.7040323,35.5826586 14.2621601,34.3345223 11.5257451,32.8570966 C9.5158636,31.7551385 8.43141265,30.5216689 8.53742624,29.2192658 C8.92354913,24.8837889 22.6430694,21.4874698 39.1860525,21.646359 C55.7314671,21.8150261 68.8319264,25.4699681 68.4472624,29.8157117 C68.3451392,31.0046922 67.2485307,32.1125171 65.3811354,33.0912749 C61.9245088,34.9285237 55.823378,36.3267492 48.417502,36.9867508 C48.1529543,37.3377739 47.9243929,37.7323081 47.748352,38.1635091 C51.1145267,36.8889728 54.9961802,38.7902662 54.9961802,38.7902662 C54.9961802,38.7902662 55.2578101,38.8929331 55.4440633,39 C60.3610515,38.1346646 64.5816568,36.874795 67.7557426,35.3646136 C71.4968552,33.5640316 73.7727433,31.4080265 73.9852567,29.0598876 C74.5445028,22.5923613 59.1243883,17.1891485 39.5288946,17.0063036 Z" id="Stroke-51" stroke="#191818" stroke-width="0.149"></path>
            </g>
        </g>
        <g id="Raw-Engineering-BLACK"></g>
    </g>
</svg>